<svg width="50" height="51" viewBox="0 0 50 51" fill="none" xmlns="http://www.w3.org/2000/svg">
<path d="M48 0.984253H2C0.89375 0.984253 0 1.878 0 2.98425V48.9843C0 50.0905 0.89375 50.9843 2 50.9843H48C49.1063 50.9843 50 50.0905 50 48.9843V2.98425C50 1.878 49.1063 0.984253 48 0.984253ZM38.4562 19.0905C38.475 19.3843 38.475 19.6905 38.475 19.9905C38.475 29.1655 31.4875 39.7343 18.7188 39.7343C14.7812 39.7343 11.1312 38.5905 8.05625 36.6218C8.61875 36.6843 9.15625 36.7093 9.73125 36.7093C12.9813 36.7093 15.9688 35.6093 18.35 33.7468C15.3 33.6843 12.7375 31.6843 11.8625 28.9343C12.9312 29.0905 13.8937 29.0905 14.9937 28.8093C13.4233 28.4902 12.0117 27.6373 10.9989 26.3954C9.98598 25.1535 9.43429 23.5993 9.4375 21.9968V21.9093C10.3562 22.428 11.4375 22.7468 12.5688 22.7905C11.6178 22.1567 10.8379 21.2981 10.2982 20.2907C9.75853 19.2833 9.47577 18.1583 9.475 17.0155C9.475 15.7218 9.8125 14.5405 10.4188 13.5155C12.1619 15.6614 14.3371 17.4164 16.8029 18.6665C19.2687 19.9167 21.97 20.634 24.7313 20.7718C23.75 16.053 27.275 12.2343 31.5125 12.2343C33.5125 12.2343 35.3125 13.0718 36.5812 14.4218C38.15 14.128 39.65 13.5405 40.9875 12.753C40.4687 14.3593 39.3813 15.7155 37.9375 16.5718C39.3375 16.4218 40.6875 16.0343 41.9375 15.4905C40.9937 16.878 39.8125 18.1093 38.4562 19.0905Z" fill="#4F8EB1" fill-opacity="0.5"/>
</svg>
