<svg width="50" height="51" viewBox="0 0 50 51" fill="none" xmlns="http://www.w3.org/2000/svg">
<path d="M48 0.984253H2C0.89375 0.984253 0 1.878 0 2.98425V48.9843C0 50.0905 0.89375 50.9843 2 50.9843H48C49.1063 50.9843 50 50.0905 50 48.9843V2.98425C50 1.878 49.1063 0.984253 48 0.984253ZM42.225 15.578H38.2313C35.1 15.578 34.4938 17.0655 34.4938 19.253V24.0718H41.9688L40.9938 31.6155H34.4938V50.9843H26.7V31.6218H20.1812V24.0718H26.7V18.5093C26.7 12.053 30.6437 8.53425 36.4062 8.53425C39.1688 8.53425 41.5375 8.7405 42.2313 8.83425V15.578H42.225Z" fill="#4F8EB1" fill-opacity="0.5"/>
</svg>
