<svg width="14" height="18" viewBox="0 0 14 18" fill="none" xmlns="http://www.w3.org/2000/svg">
<path fill-rule="evenodd" clip-rule="evenodd" d="M6.67213 1.51175C5.10036 1.51176 3.55747 2.09294 2.47193 3.21369C0.964015 4.77051 0.824493 7.28437 1.76233 9.93413C2.65547 12.4576 4.47666 14.9199 6.67217 16.379C8.86773 14.9199 10.689 12.4576 11.5821 9.93408C12.5199 7.2843 12.3804 4.77044 10.8724 3.21363C9.78681 2.09291 8.24389 1.51174 6.67213 1.51175ZM6.67212 0.227783C8.49132 0.227775 10.3394 0.897927 11.678 2.27983C13.6867 4.35364 13.6949 7.52067 12.6766 10.3977C11.6524 13.2915 9.53472 16.0978 6.95986 17.6822L6.67216 17.8592L6.38445 17.6822C3.80966 16.0978 1.69202 13.2915 0.667799 10.3977C-0.350453 7.52076 -0.342342 4.35374 1.66633 2.27992C3.00487 0.897959 4.85293 0.227791 6.67212 0.227783ZM6.67238 4.49695C5.70005 4.49695 4.91182 5.35923 4.91182 6.4229C4.91182 7.48657 5.70005 8.34885 6.67238 8.34885C7.64471 8.34885 8.43294 7.48657 8.43294 6.4229C8.43294 5.35923 7.64471 4.49695 6.67238 4.49695ZM3.73812 6.4229C3.73812 4.65011 5.05183 3.21298 6.67238 3.21298C8.29293 3.21298 9.60665 4.65011 9.60665 6.4229C9.60665 8.19569 8.29293 9.63282 6.67238 9.63282C5.05183 9.63282 3.73812 8.19569 3.73812 6.4229Z" fill="#FFB769"/>
</svg>
