<svg width="18" height="17" viewBox="0 0 18 17" fill="none" xmlns="http://www.w3.org/2000/svg">
<g clip-path="url(#clip0_79_231)">
<path d="M12.3748 3.48426C12.3747 2.89769 12.6067 2.32978 13.0301 1.87987C13.4535 1.42997 14.0414 1.12673 14.6909 1.0232C15.3404 0.919673 16.0102 1.02246 16.5831 1.31356C17.156 1.60467 17.5955 2.06557 17.8247 2.61562C18.0539 3.16567 18.0582 3.76984 17.8369 4.32243C17.6156 4.87503 17.1827 5.34085 16.614 5.6384C16.0453 5.93596 15.3771 6.0463 14.7261 5.95011C14.0751 5.85393 13.483 5.55735 13.0532 5.11226L5.49541 8.23226C5.66915 8.7217 5.66915 9.24682 5.49541 9.73626L13.0532 12.8563C13.5075 12.3866 14.1418 12.0836 14.8331 12.0059C15.5245 11.9283 16.2236 12.0815 16.7951 12.436C17.3666 12.7904 17.7697 13.3208 17.9263 13.9244C18.0829 14.528 17.9818 15.1617 17.6427 15.7028C17.3036 16.244 16.7505 16.6539 16.0907 16.8532C15.431 17.0525 14.7114 17.027 14.0716 16.7817C13.4318 16.5363 12.9172 16.0885 12.6276 15.5251C12.338 14.9617 12.294 14.3228 12.5042 13.7323L4.9464 10.6123C4.57227 10.9998 4.07357 11.2763 3.51741 11.4043C2.96124 11.5324 2.37428 11.5061 1.83548 11.3287C1.29669 11.1514 0.831915 10.8317 0.503675 10.4125C0.175436 9.9934 -0.000518799 9.49496 -0.000518799 8.98426C-0.000518799 8.47357 0.175436 7.97512 0.503675 7.55597C0.831915 7.13683 1.29669 6.8171 1.83548 6.63978C2.37428 6.46247 2.96124 6.43608 3.51741 6.56418C4.07357 6.69227 4.57227 6.96869 4.9464 7.35626L12.5042 4.23626C12.4181 3.99293 12.3745 3.73933 12.3748 3.48426Z" fill="#BABABA"/>
</g>
<defs>
<clipPath id="clip0_79_231">
<rect width="18" height="16" fill="white" transform="translate(0 0.984253)"/>
</clipPath>
</defs>
</svg>
