<svg width="115" height="29" viewBox="0 0 115 29" fill="none" xmlns="http://www.w3.org/2000/svg">
<g filter="url(#filter0_d_56_270)">
<path d="M8.46 20H4.26V0.595999H8.46V9.332L11.652 0.595999H16.132L12.576 9.976L16.468 20H11.792L8.46 10.732V20ZM19.2772 0.595999H23.5332V20H19.2772V0.595999ZM27.1784 5.188C27.1784 3.69467 27.6918 2.53733 28.7184 1.716C29.7638 0.875999 31.3318 0.456 33.4224 0.456C34.8038 0.456 35.9798 0.586666 36.9504 0.848V4.712C35.9051 4.39467 34.8691 4.236 33.8424 4.236C32.8344 4.236 32.1811 4.35733 31.8824 4.6C31.5838 4.824 31.4344 5.16 31.4344 5.608V15.016C31.4344 15.912 32.1344 16.36 33.5344 16.36C34.9531 16.36 36.1198 16.22 37.0344 15.94V19.72C36.0264 20 34.8038 20.14 33.3664 20.14C31.2758 20.14 29.7171 19.7293 28.6904 18.908C27.6824 18.0867 27.1784 16.9293 27.1784 15.436V5.188ZM44.5975 20H40.3975V0.595999H44.5975V9.332L47.7895 0.595999H52.2695L48.7135 9.976L52.6055 20H47.9295L44.5975 10.732V20ZM55.1347 5.272C55.1347 3.79733 55.6947 2.63067 56.8147 1.772C57.9534 0.894666 59.568 0.456 61.6587 0.456C63.2267 0.456 64.5427 0.633333 65.6067 0.987999V4.964C64.4867 4.53467 63.3667 4.32 62.2467 4.32C61.1267 4.32 60.3707 4.45067 59.9787 4.712C59.5867 4.97333 59.3907 5.328 59.3907 5.776V14.988C59.3907 15.436 59.5307 15.7813 59.8107 16.024C60.0907 16.248 60.5014 16.36 61.0427 16.36C61.6027 16.36 62.032 16.2853 62.3307 16.136V9.584H66.4187V18.964C64.9627 19.748 63.236 20.14 61.2387 20.14C59.2414 20.14 57.72 19.7293 56.6747 18.908C55.648 18.0867 55.1347 16.9293 55.1347 15.436V5.272ZM77.1643 5.552C77.1643 4.61867 76.6043 4.152 75.4843 4.152C74.383 4.152 73.8323 4.61867 73.8323 5.552V15.044C73.8323 15.9773 74.383 16.444 75.4843 16.444C76.6043 16.444 77.1643 15.9773 77.1643 15.044V5.552ZM69.6323 5.328C69.6323 3.79733 70.127 2.584 71.1163 1.688C72.1057 0.773333 73.5617 0.316 75.4843 0.316C77.407 0.316 78.863 0.773333 79.8523 1.688C80.8603 2.584 81.3643 3.79733 81.3643 5.328V15.268C81.3643 16.7987 80.8603 18.0213 79.8523 18.936C78.863 19.832 77.407 20.28 75.4843 20.28C73.5617 20.28 72.1057 19.832 71.1163 18.936C70.127 18.0213 69.6323 16.7987 69.6323 15.268V5.328ZM84.7316 5.272C84.7316 3.79733 85.2916 2.63067 86.4116 1.772C87.5502 0.894666 89.1649 0.456 91.2556 0.456C92.8236 0.456 94.1396 0.633333 95.2036 0.987999V4.964C94.0836 4.53467 92.9636 4.32 91.8436 4.32C90.7236 4.32 89.9676 4.45067 89.5756 4.712C89.1836 4.97333 88.9876 5.328 88.9876 5.776V14.988C88.9876 15.436 89.1276 15.7813 89.4076 16.024C89.6876 16.248 90.0982 16.36 90.6396 16.36C91.1996 16.36 91.6289 16.2853 91.9276 16.136V9.584H96.0156V18.964C94.5596 19.748 92.8329 20.14 90.8356 20.14C88.8382 20.14 87.3169 19.7293 86.2716 18.908C85.2449 18.0867 84.7316 16.9293 84.7316 15.436V5.272ZM106.761 5.552C106.761 4.61867 106.201 4.152 105.081 4.152C103.98 4.152 103.429 4.61867 103.429 5.552V15.044C103.429 15.9773 103.98 16.444 105.081 16.444C106.201 16.444 106.761 15.9773 106.761 15.044V5.552ZM99.2292 5.328C99.2292 3.79733 99.7239 2.584 100.713 1.688C101.703 0.773333 103.159 0.316 105.081 0.316C107.004 0.316 108.46 0.773333 109.449 1.688C110.457 2.584 110.961 3.79733 110.961 5.328V15.268C110.961 16.7987 110.457 18.0213 109.449 18.936C108.46 19.832 107.004 20.28 105.081 20.28C103.159 20.28 101.703 19.832 100.713 18.936C99.7239 18.0213 99.2292 16.7987 99.2292 15.268V5.328Z" fill="white"/>
</g>
<defs>
<filter id="filter0_d_56_270" x="0.26001" y="0.31604" width="114.701" height="27.964" filterUnits="userSpaceOnUse" color-interpolation-filters="sRGB">
<feFlood flood-opacity="0" result="BackgroundImageFix"/>
<feColorMatrix in="SourceAlpha" type="matrix" values="0 0 0 0 0 0 0 0 0 0 0 0 0 0 0 0 0 0 127 0" result="hardAlpha"/>
<feOffset dy="4"/>
<feGaussianBlur stdDeviation="2"/>
<feComposite in2="hardAlpha" operator="out"/>
<feColorMatrix type="matrix" values="0 0 0 0 0 0 0 0 0 0 0 0 0 0 0 0 0 0 0.25 0"/>
<feBlend mode="normal" in2="BackgroundImageFix" result="effect1_dropShadow_56_270"/>
<feBlend mode="normal" in="SourceGraphic" in2="effect1_dropShadow_56_270" result="shape"/>
</filter>
</defs>
</svg>
